<?xml version="1.0" encoding="UTF-8"?>
<svg id="Layer_1" data-name="Layer 1" xmlns="http://www.w3.org/2000/svg" xmlns:xlink="http://www.w3.org/1999/xlink" viewBox="0 0 2891.11 2804.24">
  <defs>
    <style>
      .cls-1 {
        fill: url(#linear-gradient-2);
      }

      .cls-2 {
        fill: url(#linear-gradient-17);
      }

      .cls-3 {
        fill: url(#linear-gradient-15);
      }

      .cls-4 {
        fill: url(#linear-gradient-18);
      }

      .cls-5 {
        fill: url(#linear-gradient-14);
      }

      .cls-6 {
        fill: url(#linear-gradient-20);
      }

      .cls-7 {
        fill: url(#linear-gradient-6);
      }

      .cls-8 {
        fill: url(#linear-gradient-11);
      }

      .cls-9 {
        fill: url(#linear-gradient-10);
      }

      .cls-10 {
        fill: url(#linear-gradient-16);
      }

      .cls-11 {
        fill: #111116;
      }

      .cls-12 {
        fill: url(#linear-gradient-21);
      }

      .cls-13 {
        fill: url(#linear-gradient-5);
      }

      .cls-14 {
        fill: url(#linear-gradient-7);
      }

      .cls-15 {
        fill: url(#linear-gradient-9);
      }

      .cls-16 {
        fill: url(#linear-gradient-3);
      }

      .cls-17 {
        fill: url(#linear-gradient);
      }

      .cls-18 {
        fill: url(#linear-gradient-19);
      }

      .cls-19 {
        fill: url(#linear-gradient-4);
      }

      .cls-20 {
        fill: url(#linear-gradient-8);
      }

      .cls-21 {
        fill: url(#linear-gradient-12);
      }

      .cls-22 {
        fill: url(#linear-gradient-13);
      }
    </style>
    <linearGradient id="linear-gradient" x1="926.21" y1="1101.18" x2="1401.07" y2="1721.08" gradientTransform="translate(1191.5 -429.23) rotate(45)" gradientUnits="userSpaceOnUse">
      <stop offset="0" stop-color="#d7b85e"/>
      <stop offset=".51" stop-color="#f49b31"/>
      <stop offset=".8" stop-color="#f6872c"/>
      <stop offset="1" stop-color="#f77f2b"/>
    </linearGradient>
    <linearGradient id="linear-gradient-2" x1="537.22" y1="1059.75" x2="1587.45" y2="1059.75" gradientUnits="userSpaceOnUse">
      <stop offset="0" stop-color="#99d4cd"/>
      <stop offset=".51" stop-color="#34b5c7"/>
      <stop offset="1" stop-color="#223e83"/>
    </linearGradient>
    <linearGradient id="linear-gradient-3" x1="728.97" y1="603.95" x2="715.69" y2="1248.2" gradientUnits="userSpaceOnUse">
      <stop offset="0" stop-color="#99d4cd"/>
      <stop offset=".43" stop-color="#34b5c7"/>
      <stop offset="1" stop-color="#223e83"/>
    </linearGradient>
    <linearGradient id="linear-gradient-4" x1="1744.2" y1="2210.56" x2="2628.41" y2="2486.53" gradientUnits="userSpaceOnUse">
      <stop offset="0" stop-color="#a41c77"/>
      <stop offset=".69" stop-color="#ca1e76"/>
      <stop offset=".94" stop-color="#de2b73"/>
    </linearGradient>
    <linearGradient id="linear-gradient-5" x1="162.59" y1="1506.87" x2="2618.56" y2="2283.9" gradientUnits="userSpaceOnUse">
      <stop offset="0" stop-color="#6a3989"/>
      <stop offset=".48" stop-color="#327799"/>
      <stop offset=".65" stop-color="#6b5a8c"/>
      <stop offset="1" stop-color="#b63a7c"/>
    </linearGradient>
    <linearGradient id="linear-gradient-6" x1="-121.36" y1="465.15" x2="-1552.04" y2="-804.68" gradientTransform="translate(719.36 2089.83) rotate(116.43)" gradientUnits="userSpaceOnUse">
      <stop offset="0" stop-color="#6a3989"/>
      <stop offset=".32" stop-color="#0f95af"/>
      <stop offset="1" stop-color="#62c3cc"/>
    </linearGradient>
    <linearGradient id="linear-gradient-7" x1="1843.2" y1="1313.96" x2="1002.48" y2="178.92" gradientUnits="userSpaceOnUse">
      <stop offset="0" stop-color="#881274"/>
      <stop offset=".45" stop-color="#d3266a"/>
      <stop offset=".67" stop-color="#f36b4b"/>
      <stop offset="1" stop-color="#fa9440"/>
    </linearGradient>
    <linearGradient id="linear-gradient-8" x1="1675.2" y1="1599.73" x2="1720.77" y2="108.96" gradientUnits="userSpaceOnUse">
      <stop offset="0" stop-color="#881274"/>
      <stop offset=".43" stop-color="#e54755"/>
      <stop offset="1" stop-color="#f8a54c"/>
    </linearGradient>
    <linearGradient id="linear-gradient-9" x1="2381.26" y1="1968.87" x2="2466.39" y2="1995.44" xlink:href="#linear-gradient-4"/>
    <linearGradient id="linear-gradient-10" x1="2161.49" y1="1955.43" x2="2191.21" y2="1964.71" xlink:href="#linear-gradient-4"/>
    <linearGradient id="linear-gradient-11" x1="2268.82" y1="2115.42" x2="2298.55" y2="2124.7" xlink:href="#linear-gradient-4"/>
    <linearGradient id="linear-gradient-12" x1="2604.74" y1="1964.42" x2="2630.6" y2="1972.5" xlink:href="#linear-gradient-4"/>
    <linearGradient id="linear-gradient-13" x1="2748.2" y1="1686.65" x2="2811.33" y2="1706.35" gradientUnits="userSpaceOnUse">
      <stop offset=".06" stop-color="#de2b73"/>
      <stop offset=".31" stop-color="#ca1e76"/>
      <stop offset="1" stop-color="#a41c77"/>
    </linearGradient>
    <linearGradient id="linear-gradient-14" x1="2696.4" y1="1379.65" x2="2724.1" y2="1388.3" xlink:href="#linear-gradient-13"/>
    <linearGradient id="linear-gradient-15" x1="2854.54" y1="1480.86" x2="2888.46" y2="1491.45" xlink:href="#linear-gradient-13"/>
    <linearGradient id="linear-gradient-16" x1="2742.76" y1="1204.04" x2="2776.5" y2="1214.57" xlink:href="#linear-gradient-13"/>
    <linearGradient id="linear-gradient-17" x1="2542.93" y1="772.21" x2="2624.01" y2="797.52" xlink:href="#linear-gradient-13"/>
    <linearGradient id="linear-gradient-18" x1="2688.02" y1="513.07" x2="2769.09" y2="538.37" xlink:href="#linear-gradient-13"/>
    <linearGradient id="linear-gradient-19" x1="2751.83" y1="735.65" x2="2790.87" y2="747.84" xlink:href="#linear-gradient-13"/>
    <linearGradient id="linear-gradient-20" x1="2510.65" y1="643.73" x2="2526.82" y2="648.77" xlink:href="#linear-gradient-13"/>
    <linearGradient id="linear-gradient-21" x1="2360.72" y1="1585.55" x2="2475.24" y2="1284.74" gradientUnits="userSpaceOnUse">
      <stop offset=".09" stop-color="#ef8832"/>
      <stop offset=".68" stop-color="#f49c33"/>
      <stop offset="1" stop-color="#f5b93d"/>
    </linearGradient>
  </defs>
  <circle class="cls-11" cx="1402.12" cy="1402.12" r="1402.12"/>
  <path class="cls-17" d="m1434.79,886.83c-19-84.48-106.52-136.33-120-145.12-46.58-30.39-222.92-102.72-218.06-98.09,0,0,186.01,86.81,149.31,363.03-5.43,40.86-16.36,81.18-16.36,81.18-19.82,70.66-47.42,125.61-69.9,163.49-44.2,74.48-91.17,120.98-101.91,131.44-14.31,13.93-59.51,56.52-130.02,96.02-43.55,24.41-103.89,58.22-190.18,69.57-36.98,4.86-96.09,7.89-167.78-9.59,34.43,30.43,92.4,74.17,174.11,103.74,150.99,54.63,282.21,24.39,332.27,12.13,153.12-37.48,225.34-113.14,243.42-130.18,25.98-24.49,52.27-53.55,96.41-168.88,65.3-170.63,62.19-186.88,52.14-272.48-21.87-186.21-3.4-62.63-33.46-196.27Z"/>
  <path class="cls-1" d="m862.17,461.27c-86.59.35-154.08,14.2-169.83,17.52-54.43,11.45-106.4,28.27-155.13,49.79,6.66-.33,13.35-.58,20.05-.75,0,0,10.11-.25,20.19-.25,17.92,0,414.41,39.85,583.78,261.12,25.05,32.73,45.83,68.97,45.83,68.97,38.19,66.6,54.47,123.25,66.18,165.03,11.82,42.16,25.9,92.39,29.66,161.26,2.02,36.96,5.12,104.07-17.76,186.64-12.5,45.12-32.59,114.6-91.95,182.07-52.06,59.18-110.74,90-147.99,105.62,47.55-8.31,311.54-58.97,454.18-291.37,21.87-35.63,83.49-138.88,87.82-286.25,1.05-35.69.55-135.38-49.79-248.14-74.48-166.83-207.2-248.37-254.21-276.37-161.09-95.93-318.8-95.3-421.04-94.88Z"/>
  <path class="cls-16" d="m531.65,785.13c23.13-8.26,35.97-13.12,57.95-15.36,16.08-1.64,39.55-2.51,67.95,1.96,8.74,4.03,21.87,10.84,36.17,21.56,29.14,21.84,45.11,46.43,52.29,57.88,42.67,68.08,95.47,183.75,101.42,196.69,18.77,40.84,48.35,97.4,94.6,161.63,6.58,11.89,14.1,17.3,19.71,20.05,14.06,6.88,23.39.56,51.68,6.5,13.67,2.87,19.67,6.06,22.25,11.57,2.38,5.08,1.15,10.62-.07,14.16-3.12,2.82-7.44,5.71-12.92,6.49-4.66.66-8.33-.46-9.22-.71-11.35-3.17-75.88-5.72-135.37,2.2-61.72,8.22-92.58,12.32-98.54,13.96-7.16,1.96-25.6,7.33-36.21-1.87-4.14-3.59-7.77-9.99-6.31-16.22,1.77-7.57,10.75-13.56,22.11-13.16,5.42.19,22.97.79,28.37.97,31.46,1.07,34.34,1.14,39.01.82,16.7-1.16,39.69-2.75,47.51-14.68,8.87-13.55-4.96-35.64-33.19-81.61-16.41-26.72-59.54-97.09-67.41-110.01-46.33-76.02-54.07-102.68-71.6-101.98-16.02.64-23.27,23.37-46.12,70.01-56.91,116.18-101.66,158.93-86.14,177.74,5.08,6.16,17.8,11.18,54.12.26,12.74-3.83,24.66-1.86,27.79,3.92,2.2,4.07-.27,10.46-3.68,14.18-5.19,5.66-13.33,5.95-15.22,6.05-22.52,1.19-86.25,24.37-108.22,33.99-34.76,15.21-90.95,53.13-106.43,67.98-2.12,2.03-10.82,10.68-19.83,9.09-1.05-.18-4.03-.71-5.07-2.82-2.37-4.84,7.44-14.12,11.23-17.76,0,0,39.14-38.02,81.19-91.01,1.56-1.97,3.02-3.86,4.5-5.89,13.33-18.29,20.98-32.89,23.63-37.97,9.24-17.7,71.47-132.55,157.41-291.83,1.4-6.68,2.88-18.63-1.29-32.23-8.58-27.96-33.93-39.72-38.31-41.66-11.52-3.35-29.06-6.92-49.79-4.56-38.47,4.36-64.26,26.4-75.95,15.85-3.94-3.56-4.88-9.56-4.14-13.61,1.56-8.54,11.52-13.86,30.17-20.52Z"/>
  <path class="cls-19" d="m1571.83,2334.45c148.12-3.68,317.8,1.42,503.96,23.56,231.95,27.58,434.41,75.04,602.14,125.63-7.28-12.67-18.32-30.44-33.61-50.26-28.07-36.38-60.57-66.85-144.54-123.23-161.85-108.69-205.97-106.24-230.23-101.17-14.93,3.12-12.34,5.15-37.62,13.19-78.25,24.91-131.88,14.68-199.52,14.03-73-.7-152.8,16.75-312.41,51.67-17.67,3.87-40.8,9.25-69.47,18.04-33.61,10.3-60.6,20.92-78.7,28.55Z"/>
  <path class="cls-13" d="m933.89,2028.45c-379.17-116.83-725.21-505.92-709.67-873.62,1.69-39.98,7.34-72.47,11.66-93.06-6.92,16.24-15.54,39.3-22.2,67.77-9.41,40.24-14.23,88.35-5.81,162.23,10.99,96.42,37.11,171.61,52.3,211.8,25.82,68.32,75.08,195.63,183.7,334.88,35.02,44.9,157.86,195.55,372.07,315.88,185,103.92,348.2,134.51,457.95,154.11,120.03,21.44,222.91,26.19,298,25.99,124.83-45.06,340.73-103.2,605.97-73.95,134.27,14.8,247.13,48.25,334.02,81.96-33.07-30.93-83.17-73.29-150.16-113.9-46.47-28.16-209.63-121.29-563.68-146.42-178.16-12.65-176.93,8.09-386.13.26-213.59-7.99-344.82-12.9-478.02-53.94Z"/>
  <path class="cls-7" d="m509.48,1822.47c327.98,300.79,871.72,348.02,1249.57,133.8,82.46-46.75,228.36-132.05,314.69-307.59,180.39-366.77-75.54-769.02-98.58-804.06,16.25,85.47,32.45,230.22-5.51,401.9-13.24,59.88-54.91,239.72-180.53,388.08-234.45,276.86-680.66,348.82-1022.08,216.11-66.78-25.96-349.43-135.82-475.75-432.3-61.07-143.33-62.19-275.34-56.68-351.83-12.55,62.4-23.95,157.11-6.26,268.57,42.63,268.58,222.25,433.3,281.15,487.32Z"/>
  <path class="cls-14" d="m1949.37,267.87c-43.83-43.65-91.69-91.32-142.02-127.02-337.94-239.77-899.62-20.03-1072.31,54.02,34.36-4.76,85.36-10.55,147.27-12.66,106.43-3.62,543.39-18.47,846.03,258.9,37.56,34.42,118.51,110.02,180.43,235.96,38.48,78.25,56.39,149.05,65.42,198.11,31.94,46.13,74.91,119.57,102.15,217.93,6.53,23.59,31.67,119.06,24.06,246.02-4.25,70.84-18.93,269.12-166.42,451.85-168.13,208.3-396.21,256.86-459.57,268.15,71.99,1.98,158.87-3.87,253.89-28.39,66.25-17.09,281.63-75.82,449.68-274.35,17.06-20.16,78.79-95.11,129.19-210.91,136.95-314.71,55.63-621.87,33.71-696.35-79.71-270.74-250.14-440.47-391.5-581.26Z"/>
  <path class="cls-20" d="m2019.31,204.16C1796.11,48.46,1562.05,31.2,1475.42,25.95c-233.53-14.15-416.51,47.78-512.78,88.33,33.7-7.26,82.92-16.06,142.72-20.16,414.29-28.37,722.83,211.24,754,235.98,60.16,47.72,405.91,333.02,406.45,812.4.6,529.57-420.6,829.15-458.42,855.08,382.85-172.07,634.33-538.97,642.25-939.35,6.81-344.18-167.2-670.52-430.34-854.08Z"/>
  <circle class="cls-15" cx="2420.1" cy="1980.99" r="52.96"/>
  <circle class="cls-9" cx="2175.05" cy="1959.67" r="18.49"/>
  <circle class="cls-8" cx="2282.38" cy="2119.65" r="18.49"/>
  <circle class="cls-21" cx="2616.54" cy="1968.11" r="16.09"/>
  <circle class="cls-22" cx="2777" cy="1695.64" r="39.27"/>
  <circle class="cls-5" cx="2709.03" cy="1383.6" r="17.23"/>
  <circle class="cls-3" cx="2870.01" cy="1485.69" r="21.1"/>
  <circle class="cls-10" cx="2758.15" cy="1208.85" r="20.99"/>
  <circle class="cls-2" cx="2579.92" cy="783.75" r="50.43"/>
  <circle class="cls-4" cx="2725" cy="524.61" r="50.43"/>
  <circle class="cls-18" cx="2769.64" cy="741.21" r="24.28"/>
  <circle class="cls-6" cx="2518.02" cy="646.03" r="10.06"/>
  <path class="cls-12" d="m2552.5,1095.79c18.73,39.95,49.75,121.18,42.5,225.95-7.19,103.84-48.18,176.11-66.64,207.8-47.59,81.74-104.93,127.59-163.78,173.72-53.67,42.07-138.86,99.19-257.64,142.82,39.14-26.51,460.34-320.13,416.12-700.55-5.61-48.28-19.58-105.4-50.42-167.88,23.25,25,54.51,64.1,79.86,118.14Z"/>
</svg>